<svg version="1.1" id="Layer_1" xmlns="http://www.w3.org/2000/svg" xmlns:xlink="http://www.w3.org/1999/xlink" x="0px" y="0px"
	 width="100%" viewBox="0 0 1024 1024" enable-background="new 0 0 1024 1024" xml:space="preserve">
<path fill="#EEEFEF" opacity="1.000000" stroke="none" 
	d="
M554.000000,1025.000000 
	C369.333344,1025.000000 185.166672,1025.000000 1.000000,1025.000000 
	C1.000000,683.666687 1.000000,342.333344 1.000000,1.000000 
	C342.333344,1.000000 683.666687,1.000000 1025.000000,1.000000 
	C1025.000000,342.333344 1025.000000,683.666687 1025.000000,1025.000000 
	C868.166687,1025.000000 711.333313,1025.000000 554.000000,1025.000000 
M659.498230,978.000732 
	C682.926941,970.821960 705.505066,961.481750 727.473267,950.707275 
	C751.997192,938.679321 775.662354,925.009644 797.408569,908.511658 
	C815.091064,895.096924 831.810364,880.377258 848.550171,865.770325 
	C856.910400,858.475342 864.649780,850.402100 872.147766,842.203247 
	C880.987488,832.537170 890.112061,822.949829 897.598633,812.266968 
	C911.687805,792.162354 925.502991,771.775146 937.959717,750.637695 
	C957.982971,716.660767 972.500549,680.143555 981.781738,641.844177 
	C987.386719,618.715027 991.170532,595.108154 994.924561,571.580566 
	C997.136719,557.716064 998.598755,543.597961 998.768921,529.574219 
	C999.000366,510.497284 998.358765,491.346283 996.822510,472.329559 
	C995.332214,453.882202 993.044373,435.415283 989.680481,417.220673 
	C982.581421,378.824432 970.076721,342.044800 953.760864,306.593475 
	C942.129150,281.319885 928.459961,257.111389 912.461243,234.385498 
	C892.733521,206.362595 870.578064,180.408249 845.052246,157.290421 
	C824.060791,138.279190 802.010437,120.837723 778.112122,105.678314 
	C747.076111,85.991302 714.237610,70.036942 679.508240,58.030449 
	C653.271484,48.959999 626.585449,41.480289 599.000061,37.891682 
	C578.494629,35.224113 557.939209,32.015846 537.327942,31.301441 
	C505.805695,30.208851 474.226349,30.412773 442.800568,34.841991 
	C417.620575,38.390915 392.797424,43.348148 368.496521,50.753593 
	C327.283752,63.312771 288.106598,80.518532 251.507248,103.337189 
	C221.954315,121.762596 194.825256,143.401886 170.018188,167.764999 
	C157.249268,180.305405 145.568756,194.005737 133.946915,207.650772 
	C114.602936,230.362198 98.508064,255.378220 84.330841,281.551117 
	C68.847313,310.135590 56.447430,340.052368 46.990723,371.225098 
	C35.224091,410.012177 28.827162,449.671570 27.169046,490.060730 
	C26.515471,505.980774 27.150631,522.005554 28.120077,537.926575 
	C29.185797,555.428650 30.199963,573.063171 33.249287,590.283508 
	C37.345539,613.416016 42.296070,636.517334 48.812317,659.073792 
	C59.330109,695.481750 75.196236,729.740723 94.643745,762.313110 
	C113.621918,794.099548 135.387909,823.786560 161.627731,849.958557 
	C174.558395,862.855774 188.013611,875.284607 201.880035,887.168579 
	C213.699783,897.298401 226.058517,906.909180 238.868530,915.750122 
	C263.284515,932.600952 289.239288,946.885132 316.486389,958.649109 
	C330.665527,964.770996 344.980164,970.748047 359.639801,975.550537 
	C385.342377,983.970520 411.470764,991.020508 438.424957,994.267151 
	C456.165497,996.404053 473.922791,999.142944 491.737000,999.763611 
	C522.942627,1000.851074 554.132751,999.971313 585.145203,995.153748 
	C610.116516,991.274719 634.699158,986.012085 659.498230,978.000732 
z"/>
<path fill="#FFFFFF" opacity="1.000000" stroke="none" 
	d="
M659.115662,978.105347 
	C634.699158,986.012085 610.116516,991.274719 585.145203,995.153748 
	C554.132751,999.971313 522.942627,1000.851074 491.737000,999.763611 
	C473.922791,999.142944 456.165497,996.404053 438.424957,994.267151 
	C411.470764,991.020508 385.342377,983.970520 359.639801,975.550537 
	C344.980164,970.748047 330.665527,964.770996 316.486389,958.649109 
	C289.239288,946.885132 263.284515,932.600952 238.868530,915.750122 
	C226.058517,906.909180 213.699783,897.298401 201.880035,887.168579 
	C188.013611,875.284607 174.558395,862.855774 161.627731,849.958557 
	C135.387909,823.786560 113.621918,794.099548 94.643745,762.313110 
	C75.196236,729.740723 59.330109,695.481750 48.812317,659.073792 
	C42.296070,636.517334 37.345539,613.416016 33.249287,590.283508 
	C30.199963,573.063171 29.185797,555.428650 28.120077,537.926575 
	C27.150631,522.005554 26.515471,505.980774 27.169046,490.060730 
	C28.827162,449.671570 35.224091,410.012177 46.990723,371.225098 
	C56.447430,340.052368 68.847313,310.135590 84.330841,281.551117 
	C98.508064,255.378220 114.602936,230.362198 133.946915,207.650772 
	C145.568756,194.005737 157.249268,180.305405 170.018188,167.764999 
	C194.825256,143.401886 221.954315,121.762596 251.507248,103.337189 
	C288.106598,80.518532 327.283752,63.312771 368.496521,50.753593 
	C392.797424,43.348148 417.620575,38.390915 442.800568,34.841991 
	C474.226349,30.412773 505.805695,30.208851 537.327942,31.301441 
	C557.939209,32.015846 578.494629,35.224113 599.000061,37.891682 
	C626.585449,41.480289 653.271484,48.959999 679.508240,58.030449 
	C714.237610,70.036942 747.076111,85.991302 778.112122,105.678314 
	C802.010437,120.837723 824.060791,138.279190 845.052246,157.290421 
	C870.578064,180.408249 892.733521,206.362595 912.461243,234.385498 
	C928.459961,257.111389 942.129150,281.319885 953.760864,306.593475 
	C970.076721,342.044800 982.581421,378.824432 989.680481,417.220673 
	C993.044373,435.415283 995.332214,453.882202 996.822510,472.329559 
	C998.358765,491.346283 999.000366,510.497284 998.768921,529.574219 
	C998.598755,543.597961 997.136719,557.716064 994.924561,571.580566 
	C991.170532,595.108154 987.386719,618.715027 981.781738,641.844177 
	C972.500549,680.143555 957.982971,716.660767 937.959717,750.637695 
	C925.502991,771.775146 911.687805,792.162354 897.598633,812.266968 
	C890.112061,822.949829 880.987488,832.537170 872.147766,842.203247 
	C864.649780,850.402100 856.910400,858.475342 848.550171,865.770325 
	C831.810364,880.377258 815.091064,895.096924 797.408569,908.511658 
	C775.662354,925.009644 751.997192,938.679321 727.473267,950.707275 
	C705.505066,961.481750 682.926941,970.821960 659.115662,978.105347 
M694.847961,645.957581 
	C704.883423,643.610474 714.918823,641.263367 725.689941,638.886169 
	C754.850220,627.937500 777.254395,608.894958 793.171997,582.222717 
	C803.532349,564.862549 809.994080,546.142578 812.008972,525.321960 
	C811.966492,523.906006 811.924011,522.490051 812.057739,520.328735 
	C812.336060,518.863342 812.614319,517.397888 812.988342,515.009827 
	C812.952820,508.366577 812.917297,501.723358 813.020691,494.202606 
	C811.881958,473.529022 806.698975,453.901123 796.731079,435.771851 
	C776.246094,398.514191 745.219727,375.824921 702.062683,369.006866 
	C691.043701,368.731354 680.024719,368.455841 668.175720,368.114014 
	C667.075867,368.391663 665.987183,368.851105 664.874451,368.919617 
	C648.749451,369.912048 633.926758,375.018829 619.314758,383.119110 
	C609.404480,390.375610 598.954407,397.007080 589.688171,405.009338 
	C564.884644,426.429291 540.567139,448.412872 516.130432,470.255157 
	C514.078186,472.089539 512.830017,472.137329 510.750214,470.283997 
	C490.378662,452.130981 470.110260,433.853638 449.401367,416.090973 
	C436.801270,405.283447 424.001465,394.558044 410.344788,385.173126 
	C395.070862,374.676819 377.583771,369.236725 358.037506,368.011047 
	C355.050049,368.047455 352.062592,368.083832 348.189728,367.982513 
	C346.103088,368.028381 344.016418,368.074249 341.038971,368.027832 
	C338.050842,368.058929 335.062714,368.090027 331.221619,368.005005 
	C297.422974,371.529327 269.288147,386.277557 246.660553,411.390930 
	C229.540710,430.391449 219.034592,452.716949 214.911667,478.855988 
	C214.332031,484.221802 213.752380,489.587646 213.018021,495.649017 
	C213.049438,496.121063 213.080841,496.593079 213.016907,497.984436 
	C213.049835,502.965851 213.082764,507.947235 212.998123,513.707520 
	C213.073044,514.487488 213.147949,515.267456 213.119614,516.906616 
	C213.670151,521.327454 214.220703,525.748230 214.864914,530.799072 
	C214.963852,531.211182 215.062805,531.623291 215.126923,532.755554 
	C215.449036,534.153931 215.771149,535.552307 216.023621,537.750366 
	C223.379745,572.882141 241.139786,601.420410 270.240540,622.603821 
	C287.191498,634.942993 306.123535,642.528992 327.848572,645.101990 
	C331.577454,645.623535 335.292999,646.286621 339.037750,646.639709 
	C349.536652,647.629456 359.910645,646.882202 370.969910,644.005249 
	C373.275146,643.791138 375.627258,643.800232 377.878174,643.327454 
	C395.137604,639.702087 410.763550,632.346191 424.212341,621.058044 
	C446.393646,602.440186 468.153931,583.320435 490.072906,564.390503 
	C497.723999,557.782776 505.319519,551.110657 513.123474,544.308411 
	C517.691589,548.272339 521.825928,551.867310 525.968140,555.453125 
	C550.762451,576.917297 575.360352,598.614197 600.418945,619.765259 
	C619.277649,635.683228 641.505981,643.895996 666.898438,646.018250 
	C675.929321,645.958801 684.960266,645.899353 694.847961,645.957581 
z"/>
<path fill="#9C87E5" opacity="1.000000" stroke="none" 
	d="
M358.925629,368.129822 
	C377.583771,369.236725 395.070862,374.676819 410.344788,385.173126 
	C424.001465,394.558044 436.801270,405.283447 449.401367,416.090973 
	C470.110260,433.853638 490.378662,452.130981 510.750214,470.283997 
	C512.830017,472.137329 514.078186,472.089539 516.130432,470.255157 
	C540.567139,448.412872 564.884644,426.429291 589.688171,405.009338 
	C598.954407,397.007080 609.404480,390.375610 619.867432,383.305298 
	C621.347534,383.292694 622.378967,383.291229 623.186707,382.865479 
	C634.902527,376.690002 647.216370,372.396179 660.396484,370.675079 
	C663.288147,370.297455 666.131775,369.551208 669.466309,368.984711 
	C679.187927,369.322571 688.439331,369.702484 697.694519,369.931885 
	C699.430176,369.974915 701.180847,369.416229 702.924561,369.135223 
	C745.219727,375.824921 776.246094,398.514191 796.731079,435.771851 
	C806.698975,453.901123 811.881958,473.529022 812.686646,494.950623 
	C812.532654,502.443237 812.712585,509.187866 812.892578,515.932495 
	C812.614319,517.397888 812.336060,518.863342 811.728882,520.937195 
	C811.565369,523.009521 811.730591,524.473450 811.895813,525.937317 
	C809.994080,546.142578 803.532349,564.862549 793.171997,582.222717 
	C777.254395,608.894958 754.850220,627.937500 725.083191,638.649414 
	C718.769104,639.733643 713.073853,641.110046 707.350525,642.357849 
	C702.918518,643.324219 698.451477,644.129822 693.531372,645.001343 
	C688.601257,644.999695 684.135925,644.889038 679.679443,645.039490 
	C675.134094,645.192871 670.597351,645.602905 666.056885,645.900635 
	C641.505981,643.895996 619.277649,635.683228 600.418945,619.765259 
	C575.360352,598.614197 550.762451,576.917297 525.968140,555.453125 
	C521.825928,551.867310 517.691589,548.272339 513.123474,544.308411 
	C505.319519,551.110657 497.723999,557.782776 490.072906,564.390503 
	C468.153931,583.320435 446.393646,602.440186 424.212341,621.058044 
	C410.763550,632.346191 395.137604,639.702087 377.878174,643.327454 
	C375.627258,643.800232 373.275146,643.791138 370.071564,644.004517 
	C356.189575,644.002502 343.205872,643.979370 330.222504,644.040710 
	C329.158600,644.045776 328.097412,644.626282 327.034943,644.939453 
	C306.123535,642.528992 287.191498,634.942993 270.240540,622.603821 
	C241.139786,601.420410 223.379745,572.882141 216.307617,537.109009 
	C216.114975,534.990234 215.638351,533.512817 215.161743,532.035400 
	C215.062805,531.623291 214.963852,531.211182 215.131760,530.222778 
	C214.673355,525.113403 213.948105,520.580444 213.222870,516.047424 
	C213.147949,515.267456 213.073044,514.487488 213.324768,513.011841 
	C213.471710,507.232452 213.291977,502.148773 213.112244,497.065125 
	C213.080841,496.593079 213.049438,496.121063 213.465973,495.194641 
	C214.309402,489.179138 214.704880,483.617950 215.100372,478.056793 
	C219.034592,452.716949 229.540710,430.391449 246.660553,411.390930 
	C269.288147,386.277557 297.422974,371.529327 331.940247,368.323181 
	C335.749146,368.467590 338.839478,368.293823 341.929779,368.120087 
	C344.016418,368.074249 346.103088,368.028381 348.926239,368.308258 
	C352.750366,368.465942 355.838013,368.297882 358.925629,368.129822 
M360.770538,418.660889 
	C357.194977,418.414642 353.619415,418.168396 349.231079,418.037903 
	C348.141998,417.975739 347.052917,417.913574 345.886841,417.304840 
	C345.576050,417.021362 345.265259,416.737854 344.954437,416.454346 
	C344.647888,416.922150 344.341339,417.389984 343.226990,418.005554 
	C342.135101,417.974976 341.043213,417.944366 339.374207,417.372131 
	C334.160065,418.327789 328.945892,419.283417 323.242981,420.719421 
	C284.788513,432.567749 263.798370,464.898254 263.296387,504.983032 
	C263.179749,514.294556 264.947449,523.850525 267.257355,532.935730 
	C281.906647,590.554382 349.789673,617.185242 396.664062,576.964905 
	C412.198517,563.635681 427.525818,550.064453 442.909698,536.560425 
	C453.638123,527.142944 464.301666,517.651489 475.352020,507.876495 
	C473.650055,506.287018 472.254730,504.917542 470.790070,503.626709 
	C460.550507,494.602325 450.320312,485.567047 440.041779,476.587158 
	C424.249359,462.790039 408.463043,448.985321 392.590637,435.280457 
	C383.499664,427.430969 372.600769,422.976715 360.770538,418.660889 
M553.035583,510.422089 
	C578.621521,532.741760 604.357422,554.892456 629.754578,577.424927 
	C659.848022,604.124023 707.118713,602.199707 736.160767,572.904175 
	C761.483765,547.360107 766.557678,515.644348 759.616211,481.753265 
	C754.693665,457.719360 740.701172,439.270660 718.993530,427.621185 
	C698.928406,416.853180 677.535583,413.847565 655.900635,422.347168 
	C647.071167,425.815979 638.414490,430.749908 631.049194,436.710205 
	C615.018860,449.682526 599.839355,463.709290 584.368408,477.368866 
	C574.012085,486.512695 563.745117,495.757843 553.457764,504.979645 
	C551.927673,506.351227 549.502808,507.650818 553.035583,510.422089 
z"/>
<path fill="#8B72E1" opacity="1.000000" stroke="none" 
	d="
M668.997498,368.974701 
	C666.131775,369.551208 663.288147,370.297455 660.396484,370.675079 
	C647.216370,372.396179 634.902527,376.690002 623.186707,382.865479 
	C622.378967,383.291229 621.347534,383.292694 620.212036,383.249420 
	C633.926758,375.018829 648.749451,369.912048 664.874451,368.919617 
	C665.987183,368.851105 667.075867,368.391663 668.589111,368.345734 
	C669.002441,368.577454 668.997498,368.974701 668.997498,368.974701 
z"/>
<path fill="#886DE1" opacity="1.000000" stroke="none" 
	d="
M327.441772,645.020752 
	C328.097412,644.626282 329.158600,644.045776 330.222504,644.040710 
	C343.205872,643.979370 356.189575,644.002502 369.634460,644.012939 
	C359.910645,646.882202 349.536652,647.629456 339.037750,646.639709 
	C335.292999,646.286621 331.577454,645.623535 327.441772,645.020752 
z"/>
<path fill="#8E75E2" opacity="1.000000" stroke="none" 
	d="
M694.000000,645.006897 
	C698.451477,644.129822 702.918518,643.324219 707.350525,642.357849 
	C713.073853,641.110046 718.769104,639.733643 724.715332,638.664429 
	C714.918823,641.263367 704.883423,643.610474 694.422241,645.690552 
	C693.996460,645.423462 694.000000,645.006897 694.000000,645.006897 
z"/>
<path fill="#886DE1" opacity="1.000000" stroke="none" 
	d="
M693.531372,645.001343 
	C694.000000,645.006897 693.996460,645.423462 693.993774,645.631653 
	C684.960266,645.899353 675.929321,645.958801 666.477661,645.959473 
	C670.597351,645.602905 675.134094,645.192871 679.679443,645.039490 
	C684.135925,644.889038 688.601257,644.999695 693.531372,645.001343 
z"/>
<path fill="#886DE1" opacity="1.000000" stroke="none" 
	d="
M669.466309,368.984711 
	C668.997498,368.974701 669.002441,368.577454 669.004089,368.378906 
	C680.024719,368.455841 691.043701,368.731354 702.493652,369.071045 
	C701.180847,369.416229 699.430176,369.974915 697.694519,369.931885 
	C688.439331,369.702484 679.187927,369.322571 669.466309,368.984711 
z"/>
<path fill="#866DE0" opacity="1.000000" stroke="none" 
	d="
M215.006012,478.456390 
	C214.704880,483.617950 214.309402,489.179138 213.543335,494.846863 
	C213.752380,489.587646 214.332031,484.221802 215.006012,478.456390 
z"/>
<path fill="#8B72E1" opacity="1.000000" stroke="none" 
	d="
M213.171234,516.477051 
	C213.948105,520.580444 214.673355,525.113403 215.084930,529.907715 
	C214.220703,525.748230 213.670151,521.327454 213.171234,516.477051 
z"/>
<path fill="#8165E1" opacity="1.000000" stroke="none" 
	d="
M812.940430,515.471191 
	C812.712585,509.187866 812.532654,502.443237 812.617188,495.389343 
	C812.917297,501.723358 812.952820,508.366577 812.940430,515.471191 
z"/>
<path fill="#866DE0" opacity="1.000000" stroke="none" 
	d="
M213.064575,497.524780 
	C213.291977,502.148773 213.471710,507.232452 213.383560,512.622375 
	C213.082764,507.947235 213.049835,502.965851 213.064575,497.524780 
z"/>
<path fill="#866DE0" opacity="1.000000" stroke="none" 
	d="
M358.481567,368.070435 
	C355.838013,368.297882 352.750366,368.465942 349.368958,368.377106 
	C352.062592,368.083832 355.050049,368.047455 358.481567,368.070435 
z"/>
<path fill="#866DE0" opacity="1.000000" stroke="none" 
	d="
M341.484375,368.073975 
	C338.839478,368.293823 335.749146,368.467590 332.366699,368.381226 
	C335.062714,368.090027 338.050842,368.058929 341.484375,368.073975 
z"/>
<path fill="#8B72E1" opacity="1.000000" stroke="none" 
	d="
M215.144333,532.395508 
	C215.638351,533.512817 216.114975,534.990234 216.342438,536.709167 
	C215.771149,535.552307 215.449036,534.153931 215.144333,532.395508 
z"/>
<path fill="#8165E1" opacity="1.000000" stroke="none" 
	d="
M811.952393,525.629639 
	C811.730591,524.473450 811.565369,523.009521 811.640747,521.309875 
	C811.924011,522.490051 811.966492,523.906006 811.952393,525.629639 
z"/>
<path fill="#FFFFFF" opacity="1.000000" stroke="none" 
	d="
M552.764648,510.183563 
	C549.502808,507.650818 551.927673,506.351227 553.457764,504.979645 
	C563.745117,495.757843 574.012085,486.512695 584.368408,477.368866 
	C599.839355,463.709290 615.018860,449.682526 631.049194,436.710205 
	C638.414490,430.749908 647.071167,425.815979 655.900635,422.347168 
	C677.535583,413.847565 698.928406,416.853180 718.993530,427.621185 
	C740.701172,439.270660 754.693665,457.719360 759.616211,481.753265 
	C766.557678,515.644348 761.483765,547.360107 736.160767,572.904175 
	C707.118713,602.199707 659.848022,604.124023 629.754578,577.424927 
	C604.357422,554.892456 578.621521,532.741760 552.764648,510.183563 
z"/>
<path fill="#FFFFFF" opacity="1.000000" stroke="none" 
	d="
M339.951324,417.913757 
	C341.043213,417.944366 342.135101,417.974976 343.951660,417.971802 
	C345.105469,417.909210 345.534668,417.880310 345.963837,417.851440 
	C347.052917,417.913574 348.141998,417.975739 350.043213,418.062317 
	C354.358093,418.471558 357.860779,418.856384 361.363495,419.241211 
	C372.600769,422.976715 383.499664,427.430969 392.590637,435.280457 
	C408.463043,448.985321 424.249359,462.790039 440.041779,476.587158 
	C450.320312,485.567047 460.550507,494.602325 470.790070,503.626709 
	C472.254730,504.917542 473.650055,506.287018 475.352020,507.876495 
	C464.301666,517.651489 453.638123,527.142944 442.909698,536.560425 
	C427.525818,550.064453 412.198517,563.635681 396.664062,576.964905 
	C349.789673,617.185242 281.906647,590.554382 267.257355,532.935730 
	C264.947449,523.850525 263.179749,514.294556 263.296387,504.983032 
	C263.798370,464.898254 284.788513,432.567749 323.944397,420.451324 
	C329.747620,419.426727 334.849487,418.670227 339.951324,417.913757 
z"/>
<path fill="#896EE0" opacity="1.000000" stroke="none" 
	d="
M339.662781,417.642944 
	C334.849487,418.670227 329.747620,419.426727 324.188782,420.211121 
	C328.945892,419.283417 334.160065,418.327789 339.662781,417.642944 
z"/>
<path fill="#896EE0" opacity="1.000000" stroke="none" 
	d="
M361.067017,418.951050 
	C357.860779,418.856384 354.358093,418.471558 350.449615,418.004456 
	C353.619415,418.168396 357.194977,418.414642 361.067017,418.951050 
z"/>
<path fill="#896EE0" opacity="1.000000" stroke="none" 
	d="
M345.925354,417.578125 
	C345.534668,417.880310 345.105469,417.909210 344.355530,417.897949 
	C344.341339,417.389984 344.647888,416.922150 344.954468,416.454346 
	C345.265259,416.737854 345.576050,417.021362 345.925354,417.578125 
z"/>
</svg>